<svg width="36" height="24" viewBox="0 0 36 24" fill="none" xmlns="http://www.w3.org/2000/svg">
<path d="M0.868833 8.16688V3.56714C0.868833 2.87875 1.02973 2.26858 1.35152 1.73664C1.67331 1.19426 2.12918 0.771838 2.71913 0.469361C3.30907 0.156454 4.00092 0 4.79467 0C5.58842 0 6.2749 0.156454 6.85413 0.469361C7.44407 0.771838 7.89994 1.19426 8.22173 1.73664C8.54352 2.26858 8.70442 2.87875 8.70442 3.56714V8.16688H6.87022V3.58279C6.87022 3.17601 6.77368 2.82138 6.5806 2.5189C6.38753 2.206 6.1301 1.9661 5.80831 1.79922C5.49724 1.6219 5.154 1.53325 4.77858 1.53325C4.41389 1.53325 4.07064 1.6219 3.74885 1.79922C3.43779 1.9661 3.18572 2.206 2.99265 2.5189C2.8103 2.82138 2.71913 3.17601 2.71913 3.58279V8.16688H0.868833Z" fill="#7575E2"/>
<path d="M14.7541 8.16688C13.8316 8.16688 13.0218 8 12.3246 7.66623C11.6381 7.32203 11.1018 6.85267 10.7156 6.25815C10.3295 5.65319 10.1364 4.95958 10.1364 4.17731C10.1364 3.35333 10.308 2.62842 10.6512 2.00261C10.9945 1.37679 11.4664 0.886571 12.0671 0.531942C12.6678 0.177314 13.3596 0 14.1427 0C15.0222 0 15.7463 0.182529 16.3148 0.547588C16.8832 0.912647 17.3016 1.40287 17.5697 2.01825C17.8486 2.63364 17.9881 3.32203 17.9881 4.08344C17.9881 4.18774 17.9827 4.30769 17.972 4.44329C17.9612 4.57888 17.9452 4.68318 17.9237 4.75619H12.0993C12.1637 5.1734 12.3192 5.52282 12.5659 5.80443C12.8126 6.07562 13.1237 6.28422 13.4991 6.43025C13.8745 6.56584 14.2928 6.63364 14.7541 6.63364H16.9583V8.16688H14.7541ZM12.0832 3.53585H16.1378C16.127 3.33768 16.0949 3.1395 16.0412 2.94133C15.9983 2.74316 15.9232 2.55541 15.816 2.3781C15.7194 2.20078 15.5907 2.04954 15.4298 1.92438C15.2797 1.78879 15.0973 1.68448 14.8828 1.61147C14.6683 1.52803 14.4216 1.48631 14.1427 1.48631C13.8209 1.48631 13.5366 1.54889 13.2899 1.67405C13.0432 1.78879 12.8341 1.94524 12.6624 2.14342C12.4908 2.33116 12.3567 2.5502 12.2602 2.80052C12.1744 3.04042 12.1154 3.28553 12.0832 3.53585Z" fill="#7575E2"/>
<path d="M22.2905 8.35463C21.7542 8.35463 21.2661 8.25554 20.8263 8.05737C20.3866 7.84876 20.038 7.53585 19.7805 7.11864C19.5231 6.691 19.3944 6.14863 19.3944 5.49153V0.187744H21.2447V5.77314C21.2447 5.98175 21.2929 6.16949 21.3895 6.33638C21.486 6.49283 21.6094 6.61278 21.7595 6.69622C21.9204 6.77966 22.0974 6.82138 22.2905 6.82138C22.4728 6.82138 22.6445 6.77966 22.8054 6.69622C22.9662 6.61278 23.095 6.49283 23.1915 6.33638C23.288 6.16949 23.3363 5.98175 23.3363 5.77314V2.83181C23.3363 2.21643 23.4543 1.70013 23.6903 1.28292C23.937 0.85528 24.2749 0.537157 24.7039 0.328552C25.1437 0.109517 25.6425 0 26.2002 0C26.7687 0 27.2675 0.109517 27.6966 0.328552C28.1256 0.537157 28.4635 0.85528 28.7102 1.28292C28.9569 1.70013 29.0803 2.21643 29.0803 2.83181V5.77314C29.0803 5.98175 29.1285 6.16949 29.2251 6.33638C29.3216 6.49283 29.4503 6.61278 29.6112 6.69622C29.7721 6.77966 29.9491 6.82138 30.1422 6.82138C30.3245 6.82138 30.4908 6.77966 30.6409 6.69622C30.8018 6.61278 30.9305 6.49283 31.0271 6.33638C31.1236 6.16949 31.1719 5.98175 31.1719 5.77314V0.187744H33.0222V5.49153C33.0222 6.14863 32.8935 6.691 32.636 7.11864C32.3786 7.53585 32.03 7.84876 31.5902 8.05737C31.1504 8.25554 30.6678 8.35463 30.1422 8.35463C29.6166 8.35463 29.1339 8.25554 28.6941 8.05737C28.2543 7.84876 27.9004 7.53585 27.6322 7.11864C27.364 6.691 27.23 6.14863 27.23 5.49153V2.58149C27.23 2.35202 27.1817 2.16428 27.0852 2.01825C26.9993 1.8618 26.876 1.74185 26.7151 1.65841C26.5649 1.57497 26.3933 1.53325 26.2002 1.53325C26.0286 1.53325 25.8624 1.57497 25.7015 1.65841C25.5406 1.74185 25.4119 1.8618 25.3153 2.01825C25.2188 2.16428 25.1705 2.35202 25.1705 2.58149V5.49153C25.1705 6.14863 25.0364 6.691 24.7683 7.11864C24.5108 7.53585 24.1622 7.84876 23.7225 8.05737C23.2934 8.25554 22.8161 8.35463 22.2905 8.35463Z" fill="#7575E2"/>
<path d="M4.39243 24C3.96338 24 3.57723 23.8853 3.23399 23.6558C2.90147 23.4263 2.66013 23.1186 2.50996 22.7327L0 15.8331H2.01119L4.15109 22.0287C4.18327 22.1017 4.22081 22.1538 4.26372 22.1851C4.30662 22.2164 4.35489 22.2321 4.40852 22.2321C4.46215 22.2321 4.51042 22.2164 4.55333 22.1851C4.60696 22.1538 4.6445 22.1017 4.66595 22.0287L6.82195 15.8331H8.80096L6.2749 22.7327C6.13546 23.1186 5.89412 23.4263 5.55088 23.6558C5.20763 23.8853 4.82149 24 4.39243 24Z" fill="#7575E2"/>
<path d="M9.83307 23.8123V15.8331H11.6834V23.8123H9.83307ZM10.7502 14.7223C10.4284 14.7223 10.1495 14.6076 9.91352 14.3781C9.67754 14.1486 9.55955 13.8774 9.55955 13.5645C9.55955 13.2516 9.67754 12.9804 9.91352 12.751C10.1495 12.5215 10.4284 12.4068 10.7502 12.4068C11.0827 12.4068 11.3616 12.5215 11.5868 12.751C11.8228 12.9804 11.9408 13.2516 11.9408 13.5645C11.9408 13.8774 11.8228 14.1486 11.5868 14.3781C11.3616 14.6076 11.0827 14.7223 10.7502 14.7223Z" fill="#7575E2"/>
<path d="M17.7319 23.8123C16.8094 23.8123 15.9996 23.6454 15.3024 23.3116C14.6159 22.9674 14.0796 22.498 13.6934 21.9035C13.3073 21.2986 13.1142 20.605 13.1142 19.8227C13.1142 18.9987 13.2858 18.2738 13.6291 17.648C13.9723 17.0222 14.4443 16.5319 15.0449 16.1773C15.6456 15.8227 16.3375 15.6454 17.1205 15.6454C18 15.6454 18.7241 15.8279 19.2926 16.193C19.8611 16.558 20.2794 17.0482 20.5475 17.6636C20.8264 18.279 20.9659 18.9674 20.9659 19.7288C20.9659 19.8331 20.9605 19.9531 20.9498 20.0887C20.9391 20.2243 20.923 20.3286 20.9015 20.4016H15.0771C15.1415 20.8188 15.297 21.1682 15.5437 21.4498C15.7904 21.721 16.1015 21.9296 16.4769 22.0756C16.8523 22.2112 17.2706 22.279 17.7319 22.279H19.9361V23.8123H17.7319ZM15.061 19.1812H19.1156C19.1049 18.9831 19.0727 18.7849 19.019 18.5867C18.9761 18.3885 18.9011 18.2008 18.7938 18.0235C18.6973 17.8462 18.5685 17.6949 18.4076 17.5698C18.2575 17.4342 18.0751 17.3299 17.8606 17.2568C17.6461 17.1734 17.3994 17.1317 17.1205 17.1317C16.7987 17.1317 16.5144 17.1943 16.2677 17.3194C16.021 17.4342 15.8119 17.5906 15.6402 17.7888C15.4686 17.9765 15.3345 18.1956 15.238 18.4459C15.1522 18.6858 15.0932 18.9309 15.061 19.1812Z" fill="#7575E2"/>
<path d="M25.2683 24C24.732 24 24.2439 23.9009 23.8042 23.7027C23.3644 23.4941 23.0158 23.1812 22.7583 22.764C22.5009 22.3364 22.3722 21.794 22.3722 21.1369V15.8331H24.2225V21.4185C24.2225 21.6271 24.2708 21.8149 24.3673 21.9817C24.4638 22.1382 24.5872 22.2582 24.7374 22.3416C24.8982 22.425 25.0752 22.4668 25.2683 22.4668C25.4507 22.4668 25.6223 22.425 25.7832 22.3416C25.9441 22.2582 26.0728 22.1382 26.1693 21.9817C26.2659 21.8149 26.3141 21.6271 26.3141 21.4185V18.4772C26.3141 17.8618 26.4321 17.3455 26.6681 16.9283C26.9148 16.5007 27.2527 16.1825 27.6817 15.9739C28.1215 15.7549 28.6203 15.6454 29.1781 15.6454C29.7465 15.6454 30.2453 15.7549 30.6744 15.9739C31.1034 16.1825 31.4413 16.5007 31.688 16.9283C31.9347 17.3455 32.0581 17.8618 32.0581 18.4772V21.4185C32.0581 21.6271 32.1063 21.8149 32.2029 21.9817C32.2994 22.1382 32.4281 22.2582 32.589 22.3416C32.7499 22.425 32.9269 22.4668 33.12 22.4668C33.3023 22.4668 33.4686 22.425 33.6188 22.3416C33.7796 22.2582 33.9084 22.1382 34.0049 21.9817C34.1014 21.8149 34.1497 21.6271 34.1497 21.4185V15.8331H36V21.1369C36 21.794 35.8713 22.3364 35.6138 22.764C35.3564 23.1812 35.0078 23.4941 34.568 23.7027C34.1283 23.9009 33.6456 24 33.12 24C32.5944 24 32.1117 23.9009 31.6719 23.7027C31.2321 23.4941 30.8782 23.1812 30.61 22.764C30.3419 22.3364 30.2078 21.794 30.2078 21.1369V18.2269C30.2078 17.9974 30.1595 17.8096 30.063 17.6636C29.9772 17.5072 29.8538 17.3872 29.6929 17.3038C29.5427 17.2203 29.3711 17.1786 29.1781 17.1786C29.0064 17.1786 28.8402 17.2203 28.6793 17.3038C28.5184 17.3872 28.3897 17.5072 28.2931 17.6636C28.1966 17.8096 28.1483 17.9974 28.1483 18.2269V21.1369C28.1483 21.794 28.0142 22.3364 27.7461 22.764C27.4887 23.1812 27.14 23.4941 26.7003 23.7027C26.2712 23.9009 25.7939 24 25.2683 24Z" fill="#7575E2"/>
</svg>
