<?xml version="1.0" ?><svg viewBox="0 0 200 200" xmlns="http://www.w3.org/2000/svg"><defs>
<style>.cls-1{fill:none;stroke:#000;stroke-linecap:round;stroke-linejoin:round;stroke-width:2px;}</style></defs><g id="negative-hands">
<circle cx="17" cy="9" r="1"/><circle class="cls-1" cx="51" cy="9" r="2"/>
<line class="cls-1" x1="32.33" x2="35.33" y1="46.61" y2="49.61"/>
<line class="cls-1" x1="35.33" x2="32.33" y1="46.61" y2="49.61"/>
<path class="cls-1" d="M11.18,30h.91a3.82,3.82,0,0,1,3.81,3.85V40s5,2,4,9-3,6-3,14"/>
<path class="cls-1" d="M5,63,8,52,5,37,7.76,19.37A1.6,1.6,0,0,1,9.34,18h0A1.61,1.61,0,0,1,11,19.62L11,41l2,5"/>
<path class="cls-1" d="M50.86,30h-1a3.82,3.82,0,0,0-3.81,3.85V40s-5,2-4,9,3,6,3,14"/>
<path class="cls-1" d="M57,63,54,52l3-15L54.24,19.37A1.6,1.6,0,0,0,52.66,18h0a1.61,1.61,0,0,0-1.61,1.62L51,41l-2,5"/>
<circle class="cls-1" cx="31.75" cy="19" r="14"/>
<polygon class="cls-1" points="39.33 14.22 36.5 11.39 31.75 16.14 27 11.39 24.17 14.22 28.92 18.97 24.17 23.72 27 26.55 31.75 21.8 36.5 26.55 39.33 23.72 34.58 18.97 39.33 14.22"/></g>
</svg>